<?xml version="1.0" standalone="no"?>
<!DOCTYPE svg PUBLIC "-//W3C//DTD SVG 20010904//EN"
 "http://www.w3.org/TR/2001/REC-SVG-20010904/DTD/svg10.dtd">
<svg version="1.0" xmlns="http://www.w3.org/2000/svg"
 width="512.000000pt" height="512.000000pt" viewBox="0 0 512.000000 512.000000"
 preserveAspectRatio="xMidYMid meet">

<g transform="translate(0.000000,512.000000) scale(0.100000,-0.100000)"
fill="#000000" stroke="none">
<path d="M269 5106 c-102 -27 -190 -103 -238 -205 l-26 -56 0 -2285 0 -2285
27 -57 c37 -79 98 -142 177 -181 l66 -32 2285 0 2285 0 66 32 c79 39 140 102
177 181 l27 57 0 2285 0 2285 -32 66 c-39 79 -102 140 -181 177 l-57 27 -2265
2 c-1774 1 -2275 -1 -2311 -11z m2809 -1513 l517 517 258 -257 257 -258 -517
-517 -518 -518 518 -518 517 -517 -257 -258 -258 -257 -517 517 -518 518 -518
-518 -517 -517 -258 257 -257 258 517 517 518 518 -518 518 -517 517 257 258
258 257 517 -517 518 -518 518 518z"/>
</g>
</svg>
